PathFileType	4	(X/Y/Z)	TVC_16_BWA3_walk_RCNL2025.trc
DataRate	CameraRate	NumFrames	NumMarkers	Units	OrigDataRate	OrigDataStartFrame	OrigNumFrames
100	100	9	27	mm	100	1	615
Frame#	Time	R_Shoulder			L_Shoulder			C7			J_Notch			R_Elbow			L_Elbow			R_Wrist			L_Wrist			R_Asis			L_Asis			R_Psis			L_Psis			Sacral			Thoracic			Sternum			R_Thigh_Lateral			R_Knee_Lateral			R_Shank_Lateral			R_Ankle_Lateral			R_Heel			R_Toe			L_Thigh_Lateral			L_Knee_Lateral			L_Shank_Lateral			L_Ankle_Lateral			L_Heel			L_Toe		
		X1	Y1	Z1	X2	Y2	Z2	X3	Y3	Z3	X4	Y4	Z4	X5	Y5	Z5	X6	Y6	Z6	X7	Y7	Z7	X8	Y8	Z8	X9	Y9	Z9	X10	Y10	Z10	X11	Y11	Z11	X12	Y12	Z12	X13	Y13	Z13	X14	Y14	Z14	X15	Y15	Z15	X16	Y16	Z16	X17	Y17	Z17	X18	Y18	Z18	X19	Y19	Z19	X20	Y20	Z20	X21	Y21	Z21	X22	Y22	Z22	X23	Y23	Z23	X24	Y24	Z24	X25	Y25	Z25	X26	Y26	Z26	X27	Y27	Z27
1	0.00000000	-865.046631	1298.790039	127.559525	-868.224121	1308.841431	-193.981949	-917.685364	1357.946777	-20.373795	-788.802368	1221.327759	-25.849695	-881.072205	993.976196	222.319275	-868.954895	990.543457	-276.055145	-711.109863	860.502014	132.873161	-770.856628	804.029388	-216.633186	-838.607300	867.586121	73.602112	-857.164124	893.824158	-188.830399	-1020.239746	908.425537	2.936098	-1022.828918	910.155762	-104.134125	-1021.534332	909.290649	-50.599013	-999.843689	1093.600342	-42.789326	-763.909180	1033.586670	-53.568192	-905.880005	585.716248	147.552582	-892.765015	413.412170	50.033207	-951.413574	260.934784	92.770706	-1025.982422	59.485844	2.014547	-1070.543335	57.385376	-51.894737	-901.998840	41.552391	-27.567623	-802.687866	619.141907	-279.717621	-737.621643	450.063202	-189.521332	-773.128296	305.887848	-265.178558	-793.657532	76.010330	-203.951035	-843.088562	70.370262	-160.693542	-663.977356	52.527218	-162.418610
2	0.01000000	-862.755249	1298.153442	127.243958	-865.312073	1308.412354	-194.305573	-915.220276	1357.299194	-20.764853	-786.289429	1220.747437	-26.002277	-874.807434	993.201111	221.364029	-865.692383	990.207458	-276.621460	-705.780396	860.005310	130.506310	-767.714844	803.707001	-217.021400	-835.982910	867.007019	73.349648	-854.277222	893.175537	-189.074081	-1017.650696	907.973633	2.478150	-1020.046814	909.625122	-104.619049	-1018.848755	908.799377	-51.070450	-997.211060	1093.044189	-43.418697	-761.369568	1033.026733	-53.597942	-903.671265	585.354187	147.493317	-890.916443	412.956573	50.068783	-950.200867	260.673645	92.715103	-1025.906372	59.605492	2.062724	-1070.472168	57.626488	-51.838596	-901.986755	41.561543	-27.530989	-799.249512	619.016174	-279.627777	-734.374023	449.889709	-189.319199	-766.574219	304.926208	-264.809113	-781.007019	75.161369	-202.428772	-830.689880	68.586136	-159.584381	-651.845947	54.227009	-159.000870
3	0.02000000	-860.349731	1297.529785	126.866760	-862.279663	1307.958740	-194.686111	-912.636780	1356.659912	-21.221672	-783.667969	1220.160156	-26.210602	-868.554321	992.437317	220.311234	-862.371704	989.841248	-277.198029	-700.386627	859.500946	128.125843	-764.558960	803.329559	-217.405434	-833.356506	866.446716	73.104469	-851.319519	892.511047	-189.342239	-1015.006409	907.531616	1.983666	-1017.202515	909.103577	-105.136314	-1016.104462	908.317596	-51.576324	-994.493530	1092.502075	-44.089874	-758.752625	1032.443726	-53.659744	-901.446350	584.995300	147.409882	-889.081909	412.503235	50.086819	-948.999817	260.422882	92.646149	-1025.822021	59.733242	2.098700	-1070.394775	57.884361	-51.795345	-901.975708	41.566853	-27.502003	-795.823242	618.828064	-279.582062	-731.083435	449.683899	-189.093262	-760.002747	304.066223	-264.346924	-768.866699	74.416351	-200.861252	-818.721802	66.959015	-158.409790	-640.146423	55.885235	-155.676056
4	0.03000000	-857.829895	1296.919189	126.427940	-859.127075	1307.480957	-195.123611	-909.934814	1356.029053	-21.744251	-780.937805	1219.566040	-26.474705	-862.313049	991.684814	219.160965	-858.993042	989.444763	-277.784760	-694.928802	858.988953	125.731857	-761.388916	802.897247	-217.785378	-830.727966	865.905212	72.866508	-848.290894	891.830872	-189.634827	-1012.306824	907.099670	1.452551	-1014.295837	908.591125	-105.685997	-1013.301331	907.845398	-52.116723	-991.691040	1091.974365	-44.802860	-756.058472	1031.837524	-53.753651	-899.205872	584.639893	147.302124	-887.261414	412.052246	50.087345	-947.811096	260.182678	92.564133	-1025.729370	59.869114	2.122461	-1070.311035	58.159069	-51.765064	-901.965637	41.568424	-27.480505	-792.408264	618.577087	-279.579865	-727.750061	449.445618	-188.843674	-753.417847	303.307251	-263.792969	-757.238281	73.774078	-199.249466	-807.186829	65.488052	-157.170029	-628.880981	57.500633	-152.446609
5	0.04000000	-855.195557	1296.321655	125.927437	-855.854431	1306.978760	-195.618134	-907.114380	1355.406494	-22.332569	-778.098999	1218.965210	-26.794683	-856.083801	990.943604	217.913544	-855.557068	989.017822	-278.381409	-689.407562	858.469330	123.324703	-758.204254	802.410187	-218.161446	-828.097046	865.382568	72.635475	-845.191223	891.134888	-189.951859	-1009.551880	906.677734	0.884539	-1011.326599	908.088013	-106.268333	-1010.439240	907.382874	-52.691897	-988.803467	1091.460938	-45.557655	-753.286865	1031.208374	-53.879803	-896.950806	584.288452	147.169617	-885.455383	411.604004	50.070469	-946.636108	259.953613	92.469757	-1025.628418	60.013184	2.133988	-1070.220825	58.450779	-51.747967	-901.956482	41.566483	-27.466097	-789.002136	618.262024	-279.619690	-724.374512	449.174408	-188.571060	-746.831543	302.647217	-263.150024	-746.126526	73.231140	-197.595840	-796.091248	64.170357	-155.865753	-618.055115	59.069740	-149.319168
6	0.05000000	-852.446411	1295.737427	125.365181	-852.462219	1306.452515	-196.169815	-904.175232	1354.792725	-22.986593	-775.151367	1218.357788	-27.170729	-849.867493	990.213928	216.569626	-852.064758	988.559998	-278.987518	-683.824341	857.941986	120.905113	-755.004181	801.868958	-218.534081	-825.463013	864.878784	72.410683	-842.020142	890.423279	-190.293274	-1006.741211	906.266174	0.279101	-1008.294189	907.594421	-106.883751	-1007.517700	906.930298	-53.302325	-985.830627	1090.962036	-46.354271	-750.437622	1030.556641	-54.038509	-894.682800	583.941650	147.011658	-883.664307	411.159088	50.036373	-945.477356	259.736755	92.364166	-1025.519043	60.165676	2.133277	-1070.124390	58.759727	-51.744453	-901.947876	41.561382	-27.458126	-785.600098	617.880554	-279.698822	-720.958069	448.869324	-188.276794	-740.268738	302.081299	-262.423248	-735.540955	72.780632	-195.904724	-785.446472	62.999744	-154.498077	-607.679138	60.585629	-146.306503
7	0.06000000	-849.581665	1295.166870	124.741028	-848.951111	1305.902588	-196.778915	-901.117310	1354.187744	-23.706257	-772.094666	1217.744263	-27.603161	-843.665405	989.496033	215.130356	-848.517456	988.070740	-279.602478	-678.181793	857.406677	118.474442	-751.787109	801.274200	-218.904022	-822.824280	864.393616	72.190712	-838.777344	889.696289	-190.659012	-1003.874451	905.865356	-0.364618	-1005.197815	907.110657	-107.532997	-1004.536133	906.488007	-53.948807	-982.772217	1090.478027	-47.192696	-747.510254	1029.882690	-54.230297	-892.404175	583.600464	146.827255	-881.888855	410.718475	49.985294	-944.338196	259.533905	92.248878	-1025.401611	60.327065	2.120365	-1070.021606	59.086140	-51.755154	-901.939392	41.553558	-27.455732	-782.194092	617.429626	-279.813721	-717.503113	448.529022	-187.963501	-733.769714	301.599670	-261.620911	-725.497620	72.411400	-194.182434	-775.269775	61.966358	-153.068100	-597.769165	62.036747	-143.428711
8	0.07000000	-846.600281	1294.610596	124.054802	-845.322205	1305.329468	-197.445831	-897.940186	1353.592407	-24.491457	-768.928528	1217.125122	-28.092445	-837.479614	988.790405	213.597565	-844.916870	987.549255	-280.225464	-672.484192	856.862854	116.034874	-748.550690	800.627045	-219.272385	-820.177979	863.926270	71.973129	-835.462219	888.954285	-191.048950	-1000.950989	905.476013	-1.047828	-1002.036072	906.637451	-108.217125	-1001.493530	906.056732	-54.632477	-979.627808	1090.009644	-48.072891	-744.504028	1029.187256	-54.455956	-890.118042	583.266296	146.615387	-880.129700	410.283203	49.917461	-943.222595	259.347290	92.125534	-1025.276611	60.498222	2.095319	-1069.911987	59.430172	-51.780964	-901.930603	41.543514	-27.457935	-778.772827	616.905212	-279.960449	-714.013306	448.151489	-187.635330	-727.390686	301.186035	-260.754456	-716.019592	72.107773	-192.437256	-765.585022	61.056778	-151.576523	-588.347046	63.405891	-140.713516
9	0.08000000	-843.500732	1294.069458	123.306236	-841.577209	1304.734131	-198.171066	-894.643433	1353.007446	-25.342051	-765.652588	1216.501465	-28.639204	-831.313049	988.097595	211.973816	-841.265076	986.994934	-280.855469	-666.737671	856.309265	113.589672	-745.291718	799.928986	-219.640663	-817.519348	863.475220	71.754173	-832.074097	888.197937	-191.462906	-997.969910	905.099060	-1.772077	-998.807190	906.175720	-108.937492	-998.388550	905.637390	-55.354784	-976.396851	1089.557617	-48.994770	-741.417908	1028.471802	-54.716579	-887.828308	582.940735	146.375214	-878.387329	409.854553	49.832989	-942.134033	259.179443	91.995712	-1025.145386	60.680477	2.058228	-1069.795044	59.791920	-51.823021	-901.920837	41.531864	-27.463705	-775.322632	616.302551	-280.134827	-710.493713	447.734467	-187.298264	-721.200745	300.816772	-259.838531	-707.136169	71.849960	-190.679337	-756.421631	60.254601	-150.023376	-579.440002	64.669296	-138.195023
